<svg width="1280" height="720" viewBox="0 0 1280 720" fill="none" xmlns="http://www.w3.org/2000/svg">
<g clip-path="url(#clip0_18_682)">
<path fill-rule="evenodd" clip-rule="evenodd" d="M0 0H1280V720H0V0Z" fill="#18242B"/>
<path d="M879.506 720.923L479 720.871L482.342 720.531L485.683 720.19L495.315 719.184L504.947 718.178L517.134 716.645L529.321 715.111L544.569 712.921L559.816 710.73L569.336 709.157L578.856 707.584L587.505 706.004L596.154 704.424L606.572 702.457L616.99 700.49L626.819 698.37L636.647 696.251L646.579 694.051L656.512 691.851L673.805 687.548L691.098 683.246L706.134 679.08L721.171 674.915L724.906 673.807L728.64 672.7L739.255 669.484L749.87 666.268L764.416 661.525L778.962 656.782L791.542 652.363L804.122 647.943L811.199 645.302L818.275 642.66L821.813 641.373L825.351 640.086L837.539 635.284L849.726 630.482L858.768 626.746L867.81 623.009L879.211 618.072L890.612 613.134L901.619 608.123L912.627 603.111L920.686 599.307L928.746 595.504L944.078 587.871L959.41 580.239L968.059 575.683L976.708 571.128L984.767 566.767L992.827 562.407L1002.26 557.121L1011.7 551.835L1016.81 548.87L1021.92 545.906L1030.57 540.78L1039.22 535.655L1046.88 530.951L1054.55 526.247L1059.86 522.915L1065.16 519.583L1073.62 514.051L1082.07 508.519L1089.66 503.293L1097.25 498.066L1103.56 493.511L1109.87 488.956L1114.59 485.435L1119.31 481.914L1124.28 478.109L1129.24 474.304L1136.12 468.826L1143 463.347L1147.53 459.595L1152.05 455.842L1157.35 451.315L1162.66 446.788L1167.77 442.271L1172.88 437.753L1177.6 433.443L1182.32 429.132L1192.8 419.16L1203.28 409.189L1212.07 400.064L1220.85 390.939L1225.98 385.435L1231.1 379.931L1236.01 374.427L1240.92 368.923L1245.84 363.223L1250.75 357.522L1255.66 351.625L1260.56 345.728L1265.11 340.028L1269.66 334.327L1274.48 328.037L1279.3 321.747L1279.66 321.373L1280.01 321V520.988V720.975L879.506 720.923Z" fill="white"/>
</g>
<defs>
<clipPath id="clip0_18_682">
<rect width="1280" height="720" fill="white"/>
</clipPath>
</defs>
</svg>
