<svg width="1280" height="720" viewBox="0 0 1280 720" fill="none" xmlns="http://www.w3.org/2000/svg">
<g clip-path="url(#clip0_18_644)">
<path fill-rule="evenodd" clip-rule="evenodd" d="M0 0H1280V720H0V0Z" fill="#18242B"/>
<g clip-path="url(#clip1_18_644)">
<path d="M879.506 719.923L479 719.871L482.342 719.531L485.683 719.19L495.315 718.184L504.947 717.178L517.134 715.645L529.321 714.111L544.569 711.921L559.816 709.73L569.336 708.157L578.856 706.584L587.505 705.004L596.154 703.424L606.572 701.457L616.99 699.49L626.819 697.37L636.647 695.251L646.579 693.051L656.512 690.851L673.805 686.548L691.098 682.246L706.134 678.08L721.171 673.915L724.906 672.807L728.64 671.7L739.255 668.484L749.87 665.268L764.416 660.525L778.962 655.782L791.542 651.363L804.122 646.943L811.199 644.302L818.275 641.66L821.813 640.373L825.351 639.086L837.539 634.284L849.726 629.482L858.768 625.746L867.81 622.009L879.211 617.072L890.612 612.134L901.619 607.122L912.627 602.111L920.686 598.307L928.746 594.504L944.078 586.871L959.41 579.239L968.059 574.683L976.708 570.128L984.767 565.767L992.827 561.407L1002.26 556.121L1011.7 550.835L1016.81 547.87L1021.92 544.906L1030.57 539.78L1039.22 534.655L1046.88 529.951L1054.55 525.247L1059.86 521.915L1065.16 518.583L1073.62 513.051L1082.07 507.519L1089.66 502.293L1097.25 497.066L1103.56 492.511L1109.87 487.956L1114.59 484.435L1119.31 480.914L1124.28 477.109L1129.24 473.304L1136.12 467.826L1143 462.347L1147.53 458.595L1152.05 454.842L1157.35 450.315L1162.66 445.788L1167.77 441.271L1172.88 436.753L1177.6 432.443L1182.32 428.132L1192.8 418.16L1203.28 408.189L1212.07 399.064L1220.85 389.939L1225.98 384.435L1231.1 378.931L1236.01 373.427L1240.92 367.923L1245.84 362.223L1250.75 356.522L1255.66 350.625L1260.56 344.728L1265.11 339.028L1269.66 333.327L1274.48 327.037L1279.3 320.747L1279.66 320.373L1280.01 320V519.988V719.975L879.506 719.923Z" fill="#55CD96"/>
</g>
</g>
<defs>
<clipPath id="clip0_18_644">
<rect width="1280" height="720" fill="white"/>
</clipPath>
<clipPath id="clip1_18_644">
<rect width="801.011" height="399.975" fill="white" transform="translate(479 320)"/>
</clipPath>
</defs>
</svg>
