<svg width="886" height="291" viewBox="0 0 886 291" fill="none" xmlns="http://www.w3.org/2000/svg">
<path d="M261.385 263.597C259.681 262.815 258.34 261.721 257.371 260.326C256.402 258.931 255.902 257.316 255.863 255.49H260.425C260.582 257.065 261.218 258.39 262.325 259.463C263.431 260.537 265.056 261.079 267.19 261.079C269.227 261.079 270.832 260.557 272.007 259.513C273.182 258.47 273.769 257.125 273.769 255.49C273.769 254.205 273.427 253.162 272.732 252.359C272.036 251.556 271.185 250.944 270.147 250.533C269.109 250.111 267.719 249.67 265.967 249.188C263.803 248.606 262.07 248.034 260.778 247.452C259.476 246.87 258.37 245.967 257.439 244.733C256.519 243.498 256.049 241.833 256.049 239.745C256.049 237.919 256.5 236.294 257.41 234.879C258.321 233.464 259.593 232.37 261.238 231.608C262.883 230.835 264.772 230.454 266.897 230.454C269.971 230.454 272.477 231.236 274.435 232.812C276.393 234.387 277.499 236.474 277.744 239.073H273.045C272.888 237.789 272.232 236.655 271.067 235.682C269.912 234.698 268.375 234.216 266.466 234.216C264.684 234.216 263.225 234.688 262.1 235.641C260.974 236.585 260.406 237.909 260.406 239.615C260.406 240.839 260.739 241.833 261.414 242.605C262.09 243.378 262.922 243.96 263.901 244.361C264.89 244.763 266.27 245.224 268.062 245.736C270.225 246.348 271.958 246.95 273.28 247.542C274.592 248.134 275.727 249.047 276.667 250.292C277.607 251.526 278.077 253.202 278.077 255.329C278.077 256.965 277.656 258.51 276.804 259.955C275.962 261.4 274.709 262.574 273.045 263.467C271.381 264.37 269.423 264.812 267.171 264.812C265.027 264.782 263.088 264.39 261.385 263.597Z" fill="#2D2837"/>
<path d="M289.062 263.186C287.104 262.062 285.566 260.467 284.46 258.39C283.344 256.322 282.796 253.914 282.796 251.185C282.796 248.486 283.364 246.107 284.509 244.03C285.655 241.963 287.211 240.368 289.189 239.264C291.166 238.16 293.369 237.598 295.817 237.598C298.264 237.598 300.467 238.15 302.445 239.264C304.422 240.368 305.979 241.953 307.124 244.01C308.27 246.067 308.837 248.455 308.837 251.185C308.837 253.914 308.25 256.312 307.075 258.39C305.9 260.457 304.314 262.062 302.307 263.186C300.301 264.31 298.078 264.872 295.631 264.872C293.203 264.872 291.02 264.31 289.062 263.186ZM299.938 259.915C301.289 259.172 302.376 258.068 303.208 256.593C304.04 255.118 304.451 253.322 304.451 251.195C304.451 249.078 304.04 247.281 303.228 245.796C302.415 244.321 301.348 243.217 300.036 242.495C298.724 241.772 297.295 241.411 295.758 241.411C294.192 241.411 292.762 241.772 291.46 242.495C290.158 243.217 289.12 244.321 288.337 245.796C287.554 247.271 287.162 249.068 287.162 251.195C287.162 253.342 287.544 255.158 288.318 256.634C289.081 258.109 290.109 259.212 291.392 259.935C292.674 260.657 294.084 261.019 295.621 261.019C297.148 261.019 298.597 260.657 299.938 259.915Z" fill="#2D2837"/>
<path d="M324.942 241.662H319.538V264.44H315.26V241.662H311.921V238.05H315.26V236.173C315.26 233.223 316.004 231.056 317.492 229.691C318.98 228.326 321.369 227.644 324.658 227.644V231.306C322.779 231.306 321.457 231.688 320.683 232.44C319.91 233.193 319.528 234.437 319.528 236.173V238.05H324.932V241.662H324.942Z" fill="#2D2837"/>
<path d="M335.133 241.662V257.216C335.133 258.5 335.398 259.403 335.936 259.935C336.465 260.467 337.395 260.728 338.707 260.728H341.859V264.44H338.002C335.623 264.44 333.831 263.878 332.647 262.755C331.452 261.631 330.865 259.784 330.865 257.216V241.662H327.526V238.05H330.865V231.407H335.143V238.05H341.859V241.662H335.133Z" fill="#2D2837"/>
<path d="M381.333 238.05L373.295 264.44H368.88L362.673 243.488L356.466 264.44H352.05L343.964 238.05H348.33L354.253 260.206L360.646 238.05H365.012L371.259 260.256L377.084 238.05H381.333Z" fill="#2D2837"/>
<path d="M385.562 244.04C386.629 242.003 388.088 240.418 389.957 239.294C391.818 238.17 393.893 237.608 396.184 237.608C398.436 237.608 400.394 238.11 402.058 239.103C403.722 240.097 404.956 241.351 405.768 242.856V238.04H410.096V264.43H405.768V259.513C404.926 261.059 403.664 262.333 401.989 263.347C400.315 264.36 398.357 264.862 396.135 264.862C393.844 264.862 391.778 264.28 389.928 263.126C388.078 261.972 386.619 260.346 385.562 258.259C384.504 256.172 383.966 253.794 383.966 251.135C383.956 248.455 384.495 246.087 385.562 244.04ZM404.594 245.997C403.81 244.522 402.753 243.388 401.422 242.605C400.09 241.823 398.622 241.421 397.026 241.421C395.43 241.421 393.971 241.803 392.659 242.575C391.348 243.348 390.29 244.472 389.507 245.947C388.724 247.422 388.332 249.158 388.332 251.145C388.332 253.172 388.724 254.928 389.507 256.423C390.29 257.918 391.338 259.052 392.659 259.845C393.981 260.637 395.43 261.029 397.026 261.029C398.622 261.029 400.09 260.637 401.422 259.845C402.753 259.062 403.81 257.918 404.594 256.423C405.377 254.928 405.768 253.192 405.768 251.195C405.768 249.208 405.377 247.472 404.594 245.997Z" fill="#2D2837"/>
<path d="M424.82 238.822C426.21 237.989 427.914 237.568 429.921 237.568V242.094H428.795C423.998 242.094 421.609 244.763 421.609 250.091V264.44H417.331V238.05H421.609V242.334C422.353 240.829 423.43 239.655 424.82 238.822Z" fill="#2D2837"/>
<path d="M458.204 252.881H437.626C437.782 255.48 438.654 257.517 440.23 258.972C441.816 260.437 443.735 261.159 445.986 261.159C447.837 261.159 449.374 260.718 450.617 259.835C451.851 258.951 452.722 257.767 453.221 256.292H457.823C457.137 258.831 455.757 260.888 453.691 262.484C451.625 264.079 449.051 264.872 445.986 264.872C443.539 264.872 441.356 264.31 439.427 263.186C437.498 262.062 435.991 260.467 434.894 258.39C433.798 256.322 433.25 253.914 433.25 251.185C433.25 248.455 433.778 246.067 434.845 244.01C435.912 241.953 437.41 240.378 439.329 239.264C441.258 238.16 443.47 237.598 445.977 237.598C448.424 237.598 450.578 238.14 452.458 239.234C454.337 240.327 455.786 241.823 456.804 243.739C457.823 245.646 458.332 247.813 458.332 250.221C458.351 251.074 458.302 251.947 458.204 252.881ZM452.849 245.004C452.125 243.799 451.146 242.886 449.912 242.254C448.679 241.632 447.308 241.311 445.8 241.311C443.637 241.311 441.796 242.013 440.279 243.428C438.761 244.843 437.89 246.8 437.675 249.308H453.936C453.936 247.653 453.574 246.208 452.849 245.004Z" fill="#2D2837"/>
<path d="M495.896 256.975H481.612L478.979 264.44H474.465L486.311 231.066H491.245L503.042 264.44H498.529L495.896 256.975ZM494.672 253.412L488.749 236.454L482.826 253.412H494.672Z" fill="#2D2837"/>
<path d="M515.701 238.822C517.092 237.989 518.795 237.568 520.802 237.568V242.094H519.676C514.879 242.094 512.49 244.763 512.49 250.091V264.44H508.212V238.05H512.49V242.334C513.234 240.829 514.311 239.655 515.701 238.822Z" fill="#2D2837"/>
<path d="M530.954 241.662V257.216C530.954 258.5 531.218 259.403 531.757 259.935C532.285 260.467 533.216 260.728 534.527 260.728H537.68V264.44H533.822C531.443 264.44 529.652 263.878 528.467 262.755C527.283 261.631 526.686 259.784 526.686 257.216V241.662H523.347V238.05H526.686V231.407H530.964V238.05H537.68V241.662H530.954Z" fill="#2D2837"/>
<path d="M542.976 232.892C542.408 232.31 542.134 231.608 542.134 230.775C542.134 229.942 542.418 229.229 542.976 228.657C543.544 228.075 544.229 227.794 545.042 227.794C545.825 227.794 546.491 228.085 547.039 228.657C547.587 229.239 547.861 229.942 547.861 230.775C547.861 231.608 547.587 232.32 547.039 232.892C546.491 233.474 545.825 233.755 545.042 233.755C544.229 233.765 543.544 233.474 542.976 232.892ZM547.117 238.05V264.44H542.839V238.05H547.117Z" fill="#2D2837"/>
<path d="M558.209 263.838C556.643 263.146 555.409 262.183 554.499 260.948C553.588 259.714 553.089 258.289 552.991 256.684H557.407C557.534 257.998 558.131 259.072 559.218 259.915C560.295 260.748 561.714 261.169 563.467 261.169C565.092 261.169 566.384 260.798 567.324 260.065C568.264 259.323 568.734 258.4 568.734 257.276C568.734 256.122 568.234 255.259 567.226 254.697C566.227 254.135 564.671 253.583 562.576 253.031C560.667 252.519 559.11 251.998 557.896 251.466C556.692 250.934 555.654 250.151 554.793 249.108C553.931 248.064 553.5 246.689 553.5 244.994C553.5 243.649 553.892 242.405 554.675 241.281C555.458 240.157 556.574 239.264 558.014 238.612C559.453 237.949 561.097 237.628 562.948 237.628C565.797 237.628 568.097 238.371 569.859 239.846C571.612 241.321 572.552 243.348 572.679 245.917H568.401C568.303 244.532 567.764 243.428 566.776 242.595C565.787 241.762 564.465 241.341 562.801 241.341C561.264 241.341 560.04 241.682 559.139 242.354C558.229 243.027 557.779 243.91 557.779 245.004C557.779 245.867 558.053 246.589 558.601 247.151C559.149 247.713 559.834 248.164 560.667 248.496C561.499 248.827 562.644 249.208 564.122 249.629C565.973 250.141 567.471 250.653 568.636 251.145C569.791 251.646 570.79 252.389 571.622 253.382C572.454 254.376 572.885 255.68 572.914 257.286C572.914 258.731 572.522 260.035 571.739 261.189C570.956 262.343 569.85 263.256 568.43 263.909C567.011 264.561 565.366 264.892 563.516 264.892C561.538 264.872 559.776 264.531 558.209 263.838Z" fill="#2D2837"/>
<path d="M578.925 244.04C579.992 242.003 581.451 240.418 583.321 239.294C585.181 238.17 587.257 237.608 589.548 237.608C591.799 237.608 593.757 238.11 595.422 239.103C597.086 240.097 598.319 241.351 599.132 242.856V238.04H603.459V264.43H599.132V259.513C598.29 261.059 597.027 262.333 595.353 263.347C593.679 264.36 591.721 264.862 589.499 264.862C587.208 264.862 585.142 264.28 583.292 263.126C581.441 261.972 579.983 260.346 578.925 258.259C577.868 256.172 577.33 253.794 577.33 251.135C577.33 248.455 577.868 246.087 578.925 244.04ZM597.957 245.997C597.174 244.522 596.117 243.388 594.785 242.605C593.454 241.823 591.985 241.421 590.39 241.421C588.794 241.421 587.335 241.803 586.023 242.575C584.711 243.348 583.654 244.472 582.871 245.947C582.088 247.422 581.696 249.158 581.696 251.145C581.696 253.172 582.088 254.928 582.871 256.423C583.654 257.918 584.702 259.052 586.023 259.845C587.345 260.637 588.794 261.029 590.39 261.029C591.985 261.029 593.454 260.637 594.785 259.845C596.117 259.062 597.174 257.918 597.957 256.423C598.74 254.928 599.132 253.192 599.132 251.195C599.132 249.208 598.74 247.472 597.957 245.997Z" fill="#2D2837"/>
<path d="M630.852 240.478C632.79 242.425 633.769 245.224 633.769 248.887V264.44H629.54V249.509C629.54 246.88 628.894 244.863 627.611 243.468C626.329 242.073 624.576 241.371 622.344 241.371C620.092 241.371 618.291 242.094 616.96 243.539C615.628 244.983 614.962 247.091 614.962 249.85V264.44H610.684V238.05H614.962V241.803C615.804 240.458 616.96 239.414 618.418 238.672C619.877 237.929 621.483 237.568 623.235 237.568C626.378 237.568 628.913 238.541 630.852 240.478Z" fill="#2D2837"/>
<path d="M644.577 263.838C643.011 263.146 641.777 262.183 640.867 260.948C639.957 259.714 639.457 258.289 639.359 256.684H643.775C643.902 257.998 644.499 259.072 645.586 259.915C646.663 260.748 648.082 261.169 649.835 261.169C651.46 261.169 652.752 260.798 653.692 260.065C654.632 259.323 655.102 258.4 655.102 257.276C655.102 256.122 654.602 255.259 653.594 254.697C652.586 254.135 651.039 253.583 648.944 253.031C647.035 252.519 645.478 251.998 644.264 251.466C643.06 250.934 642.022 250.151 641.161 249.108C640.299 248.064 639.868 246.689 639.868 244.994C639.868 243.649 640.26 242.405 641.043 241.281C641.826 240.157 642.943 239.264 644.382 238.612C645.821 237.949 647.466 237.628 649.316 237.628C652.165 237.628 654.465 238.371 656.228 239.846C657.98 241.321 658.92 243.348 659.047 245.917H654.769C654.671 244.532 654.133 243.428 653.144 242.595C652.155 241.762 650.833 241.341 649.169 241.341C647.632 241.341 646.408 241.682 645.507 242.354C644.607 243.027 644.147 243.91 644.147 245.004C644.147 245.867 644.421 246.589 644.969 247.151C645.517 247.713 646.203 248.164 647.035 248.496C647.867 248.837 649.012 249.208 650.491 249.629C652.341 250.141 653.839 250.653 655.004 251.145C656.159 251.646 657.158 252.389 657.99 253.382C658.822 254.376 659.253 255.68 659.282 257.286C659.282 258.731 658.891 260.035 658.107 261.189C657.324 262.343 656.218 263.256 654.798 263.909C653.369 264.571 651.734 264.892 649.884 264.892C647.916 264.872 646.144 264.531 644.577 263.838Z" fill="#2D2837"/>
<path d="M304.001 144.94L290.872 159.309V191.138H256.088V63.8209H290.872V116.753L338.961 63.8209H377.642L326.89 120.205L380.305 191.138H339.49L304.001 144.94Z" fill="#2D2837"/>
<path d="M485.89 92.5597V191.138H453.769V181.315C447.494 188.951 438.037 192.774 425.378 192.774C416.626 192.774 408.666 190.687 401.51 186.503C394.353 182.318 388.675 176.348 384.475 168.591C380.275 160.834 378.18 151.853 378.18 141.668C378.18 131.483 380.275 122.543 384.475 114.836C388.675 107.14 394.353 101.229 401.51 97.1053C408.666 92.9811 416.626 90.9241 425.378 90.9241C436.735 90.9241 445.663 94.3157 452.173 101.109V92.5597H485.89ZM447.024 159.038C450.813 154.854 452.702 149.064 452.702 141.668C452.702 134.393 450.813 128.694 447.024 124.57C443.235 120.446 438.389 118.388 432.476 118.388C426.563 118.388 421.707 120.456 417.928 124.57C414.139 128.694 412.25 134.393 412.25 141.668C412.25 149.064 414.139 154.854 417.928 159.038C421.717 163.223 426.563 165.31 432.476 165.31C438.389 165.31 443.235 163.223 447.024 159.038Z" fill="#2D2837"/>
<path d="M591.917 97.1053C599.073 101.229 604.751 107.14 608.951 114.836C613.151 122.533 615.246 131.473 615.246 141.668C615.246 151.853 613.141 160.824 608.951 168.591C604.751 176.348 599.073 182.318 591.917 186.503C584.76 190.687 576.801 192.774 568.048 192.774C555.39 192.774 545.923 188.951 539.657 181.315V191.138H507.536V56.1847H541.253V101.109C547.754 94.3157 556.692 90.9241 568.048 90.9241C576.801 90.9241 584.75 92.9912 591.917 97.1053ZM575.499 159.038C579.287 154.854 581.177 149.064 581.177 141.668C581.177 134.393 579.287 128.694 575.499 124.57C571.71 120.446 566.864 118.388 560.951 118.388C555.037 118.388 550.182 120.456 546.403 124.57C542.614 128.694 540.724 134.393 540.724 141.668C540.724 149.064 542.614 154.854 546.403 159.038C550.191 163.223 555.037 165.31 560.951 165.31C566.864 165.31 571.71 163.223 575.499 159.038Z" fill="#2D2837"/>
<path d="M632.81 76.3741C629.021 72.862 627.131 68.497 627.131 63.2791C627.131 58.0712 629.021 53.7062 632.81 50.1841C636.598 46.672 641.562 44.9059 647.72 44.9059C653.868 44.9059 658.841 46.5717 662.63 49.9031C666.419 53.2446 668.308 57.5092 668.308 62.7272C668.308 68.1859 666.409 72.7015 662.63 76.2737C658.841 79.856 653.878 81.6422 647.72 81.6422C641.562 81.6522 636.598 79.8862 632.81 76.3741ZM630.861 92.5597H664.578V191.138H630.861V92.5597Z" fill="#2D2837"/>
<path d="M697.581 189.954C689.778 188.078 683.503 185.619 678.774 182.589L688.887 158.948C693.263 161.737 698.472 163.945 704.502 165.591C710.533 167.226 716.505 168.049 722.428 168.049C727.871 168.049 731.748 167.477 734.049 166.323C736.359 165.169 737.505 163.503 737.505 161.316C737.505 159.138 736.114 157.593 733.334 156.68C730.554 155.767 726.148 154.894 720.117 154.041C712.422 153.068 705.892 151.803 700.508 150.218C695.123 148.642 690.483 145.732 686.577 141.488C682.67 137.243 680.722 131.303 680.722 123.667C680.722 117.365 682.553 111.756 686.224 106.839C689.886 101.932 695.241 98.0485 702.28 95.1988C709.319 92.349 717.748 90.9241 727.568 90.9241C734.548 90.9241 741.469 91.6466 748.332 93.1016C755.195 94.5566 760.932 96.6237 765.543 99.2828L755.43 122.743C746.913 117.897 737.69 115.468 727.744 115.468C722.418 115.468 718.512 116.101 716.035 117.375C713.548 118.649 712.305 120.315 712.305 122.382C712.305 124.69 713.666 126.296 716.387 127.199C719.109 128.112 723.603 129.045 729.878 130.018C737.798 131.233 744.367 132.627 749.576 134.203C754.784 135.778 759.307 138.658 763.154 142.842C767.002 147.027 768.921 152.877 768.921 160.393C768.921 166.574 767.08 172.123 763.419 177.03C759.747 181.937 754.343 185.79 747.187 188.58C740.03 191.369 731.425 192.764 721.37 192.764C713.313 192.774 705.393 191.841 697.581 189.954Z" fill="#2D2837"/>
<path d="M885.148 92.5597V191.138H853.027V181.315C846.752 188.951 837.294 192.774 824.636 192.774C815.874 192.774 807.924 190.687 800.768 186.503C793.611 182.318 787.933 176.348 783.733 168.591C779.533 160.834 777.438 151.853 777.438 141.668C777.438 131.483 779.533 122.543 783.733 114.836C787.933 107.14 793.611 101.229 800.768 97.1053C807.924 92.9811 815.874 90.9241 824.636 90.9241C835.992 90.9241 844.921 94.3157 851.431 101.109V92.5597H885.148ZM846.282 159.038C850.07 154.854 851.96 149.064 851.96 141.668C851.96 134.393 850.07 128.694 846.282 124.57C842.493 120.446 837.647 118.388 831.734 118.388C825.82 118.388 820.965 120.456 817.186 124.57C813.397 128.694 811.507 134.393 811.507 141.668C811.507 149.064 813.397 154.854 817.186 159.038C820.974 163.223 825.82 165.31 831.734 165.31C837.647 165.31 842.503 163.223 846.282 159.038Z" fill="#2D2837"/>
<path d="M46.4734 5.41022C45.4944 20.3014 39.4735 33.6171 30.2415 43.7319C11.5033 63.9715 0 91.3054 0 121.399C0 124.389 0.186018 127.329 0.55804 130.219V130.309C0.56783 130.34 0.567825 130.35 0.567825 130.37C3.53421 154.181 18.2291 174.23 38.5141 184.255C47.4328 188.67 57.4578 191.138 68.0311 191.138C75.2659 191.138 82.0896 189.262 88.0224 185.961C82.0015 179.448 73.631 175.244 64.2913 174.742C64.5654 174.742 64.8493 174.752 65.1234 174.782C50.7516 146.816 50.3405 112.217 66.6409 83.0771C66.6409 83.0671 66.6507 83.047 66.6507 83.047C66.8563 82.6456 67.0815 82.2443 67.3164 81.8429C67.5122 81.4816 67.7374 81.1104 67.9626 80.7391C68.1877 80.3578 68.4227 79.9865 68.6479 79.6052C74.4044 70.233 82.3148 63.0984 91.302 58.4425C91.5076 58.3321 91.7328 58.2317 91.958 58.1113C102.149 52.9937 111.646 45.9696 119.909 37.0289C125.538 30.958 129.728 24.0242 132.499 16.6689C106.81 -0.781052 74.8548 -4.52392 46.4734 5.41022ZM93.9747 31.2189C89.4419 31.2189 85.7609 27.456 85.7609 22.82C85.7609 18.1741 89.4419 14.4212 93.9747 14.4212C98.488 14.4212 102.169 18.1841 102.169 22.82C102.169 27.456 98.488 31.2189 93.9747 31.2189Z" fill="url(#paint0_linear_17_390)"/>
<path d="M207.402 190.827C207.402 241.582 170.092 285.242 119.742 290.841C162.515 268.093 168.379 225.055 168.379 208.659C168.379 194.38 165.139 179.91 158.305 166.373C146.596 143.214 121.563 136.35 97.8125 136.35C103.05 136.35 107.015 135.126 108.033 134.805C115.885 132.748 124.177 129.065 131.177 126.727C133.174 126.065 135.054 125.523 136.777 125.152C136.924 125.112 138.304 124.851 139.9 124.67C142.132 124.419 144.345 124.299 146.538 124.299C170.69 124.299 207.402 142.09 207.402 190.827Z" fill="url(#paint1_linear_17_390)"/>
<path d="M136.777 125.152C134.839 125.533 132.969 126.065 131.177 126.727L136.777 125.152Z" fill="url(#paint2_linear_17_390)"/>
<path d="M168.379 208.659C168.379 209.311 168.369 209.953 168.36 210.595C168.222 190.727 152.48 174.682 133.057 174.682C113.457 174.682 97.7439 190.988 97.7439 210.836C83.47 201.604 72.4953 189.071 65.1626 174.792V174.782H65.1528C58.0942 161.055 54.4033 145.722 54.4033 130.229C54.4033 114.164 58.3683 97.9081 66.6703 83.0771C64.0172 88.1546 62.4997 93.9645 62.4997 100.136C62.4997 120.124 78.3106 136.33 97.8124 136.33C121.573 136.33 146.596 143.194 158.305 166.353C165.129 179.9 168.379 194.38 168.379 208.659Z" fill="url(#paint3_linear_17_390)"/>
<path d="M38.5238 184.245C31.5141 190.847 27.1281 200.32 27.1184 210.836C26.6191 210.023 26.1296 209.221 25.6401 208.408C25.1506 207.575 24.6611 206.752 24.1911 205.919C24.1618 205.859 24.1324 205.819 24.103 205.779C23.31 204.364 22.517 202.949 21.7436 201.524C21.6359 201.313 21.5185 201.093 21.3912 200.882C21.3324 200.782 21.2835 200.671 21.2248 200.551C20.3926 198.945 19.5702 197.35 18.7674 195.734C18.3367 194.861 17.9157 193.988 17.4947 193.115C17.0933 192.242 16.6822 191.369 16.2808 190.486C15.8794 189.613 15.4878 188.73 15.106 187.847C14.7144 186.944 14.3423 186.061 13.9605 185.158C13.5885 184.275 13.2263 183.372 12.8543 182.469C12.8249 182.378 12.7955 182.298 12.7563 182.208C12.1689 180.723 11.6109 179.248 11.0725 177.752C10.8864 177.281 10.72 176.819 10.5536 176.348C10.4948 176.177 10.4263 176.006 10.3676 175.836C10.1032 175.083 9.83891 174.331 9.58437 173.568L8.79137 171.17C8.6641 170.809 8.55641 170.457 8.43893 170.096C8.23334 169.414 8.01796 168.721 7.81237 168.039C7.80258 168.009 7.80258 167.999 7.783 167.969C7.71447 167.738 7.64595 167.497 7.57742 167.266C7.37182 166.554 7.15644 165.852 6.95085 165.139C6.89211 164.938 6.84316 164.738 6.78442 164.537C6.57883 163.795 6.36345 163.052 6.16765 162.289C5.9131 161.346 5.66835 160.393 5.43339 159.429C5.17885 158.486 4.96346 157.533 4.73829 156.57C4.51312 155.616 4.28795 154.653 4.08236 153.68C3.87677 152.726 3.68097 151.763 3.48517 150.79C3.21104 149.435 2.93692 148.07 2.70196 146.706C2.467 145.331 2.24183 143.966 2.01666 142.592C1.98729 142.421 1.95792 142.23 1.92855 142.06C1.80128 141.247 1.69359 140.434 1.57611 139.601C1.43905 138.618 1.30199 137.615 1.18451 136.611C1.12577 136.15 1.07682 135.698 1.02787 135.256C0.939756 134.584 0.87123 133.912 0.8027 133.24C0.704799 132.336 0.616685 131.453 0.538364 130.55C0.538364 130.48 0.528564 130.41 0.528564 130.34C3.5439 154.161 18.2388 174.21 38.5238 184.245Z" fill="url(#paint4_linear_17_390)"/>
<defs>
<linearGradient id="paint0_linear_17_390" x1="0" y1="95.5692" x2="132.499" y2="95.5692" gradientUnits="userSpaceOnUse">
<stop offset="1.33195e-07" stop-color="#50D296"/>
<stop offset="1" stop-color="#91E6C8"/>
</linearGradient>
<linearGradient id="paint1_linear_17_390" x1="97.8125" y1="207.57" x2="207.402" y2="207.57" gradientUnits="userSpaceOnUse">
<stop offset="2.02456e-07" stop-color="#50D296"/>
<stop offset="1" stop-color="#91E6C8"/>
</linearGradient>
<linearGradient id="paint2_linear_17_390" x1="131.171" y1="125.939" x2="136.771" y2="125.939" gradientUnits="userSpaceOnUse">
<stop offset="2.02456e-07" stop-color="#50D296"/>
<stop offset="1" stop-color="#91E6C8"/>
</linearGradient>
<linearGradient id="paint3_linear_17_390" x1="54.4033" y1="146.957" x2="168.379" y2="146.957" gradientUnits="userSpaceOnUse">
<stop offset="1.33195e-07" stop-color="#55CD96"/>
<stop offset="1" stop-color="#41C387"/>
</linearGradient>
<linearGradient id="paint4_linear_17_390" x1="0.574871" y1="170.588" x2="38.5253" y2="170.588" gradientUnits="userSpaceOnUse">
<stop offset="1.33195e-07" stop-color="#55CD96"/>
<stop offset="1" stop-color="#41C387"/>
</linearGradient>
</defs>
</svg>
