<svg width="886" height="291" viewBox="0 0 886 291" fill="none" xmlns="http://www.w3.org/2000/svg">
<path d="M311.38 145.28L297.97 159.6V191.32H262.44V64.4399H297.97V117.19L347.09 64.4399H386.6L334.76 120.63L389.32 191.32H347.63L311.38 145.28Z" fill="#2D2837"/>
<path d="M491.18 93.0699V191.31H458.37V181.52C451.96 189.13 442.3 192.94 429.37 192.94C420.43 192.94 412.3 190.86 404.99 186.69C397.68 182.52 391.88 176.57 387.59 168.84C383.3 161.11 381.16 152.16 381.16 142.01C381.16 131.86 383.3 122.95 387.59 115.27C391.88 107.6 397.68 101.71 404.99 97.5999C412.3 93.4899 420.43 91.4399 429.37 91.4399C440.97 91.4399 450.09 94.8199 456.74 101.59V93.0699H491.18ZM451.49 159.32C455.36 155.15 457.29 149.38 457.29 142.01C457.29 134.76 455.36 129.08 451.49 124.97C447.62 120.86 442.67 118.81 436.63 118.81C430.59 118.81 425.63 120.87 421.77 124.97C417.9 129.08 415.97 134.76 415.97 142.01C415.97 149.38 417.9 155.15 421.77 159.32C425.64 163.49 430.59 165.57 436.63 165.57C442.67 165.58 447.62 163.49 451.49 159.32Z" fill="#2D2837"/>
<path d="M595.66 97.6C602.97 101.71 608.77 107.6 613.06 115.27C617.35 122.94 619.5 131.85 619.5 142.01C619.5 152.17 617.35 161.1 613.06 168.84C608.77 176.57 602.97 182.52 595.66 186.69C588.35 190.86 580.22 192.94 571.28 192.94C558.35 192.94 548.68 189.13 542.28 181.52V191.31H509.47V56.8199H543.91V101.59C550.55 94.8199 559.68 91.4399 571.28 91.4399C580.22 91.4399 588.35 93.5 595.66 97.6ZM578.89 159.32C582.76 155.15 584.69 149.38 584.69 142.01C584.69 134.76 582.76 129.08 578.89 124.97C575.02 120.86 570.07 118.81 564.03 118.81C557.99 118.81 553.03 120.87 549.17 124.97C545.3 129.08 543.37 134.76 543.37 142.01C543.37 149.38 545.3 155.15 549.17 159.32C553.04 163.49 557.99 165.57 564.03 165.57C570.07 165.58 575.02 163.49 578.89 159.32Z" fill="#2D2837"/>
<path d="M633.45 76.94C629.58 73.44 627.65 69.09 627.65 63.89C627.65 58.7 629.58 54.35 633.45 50.84C637.32 47.34 642.39 45.58 648.67 45.58C654.95 45.58 660.03 47.24 663.9 50.56C667.77 53.89 669.7 58.14 669.7 63.34C669.7 68.78 667.77 73.28 663.9 76.84C660.03 80.41 654.95 82.19 648.67 82.19C642.39 82.2 637.32 80.45 633.45 76.94ZM631.46 93.07H665.9V191.31H631.46V93.07Z" fill="#2D2837"/>
<path d="M696.8 190.14C688.83 188.27 682.42 185.82 677.59 182.8L687.92 159.24C692.39 162.02 697.71 164.22 703.87 165.86C710.03 167.49 716.13 168.31 722.18 168.31C727.74 168.31 731.7 167.74 734.05 166.59C736.41 165.44 737.58 163.78 737.58 161.6C737.58 159.43 736.16 157.88 733.32 156.98C730.48 156.07 725.98 155.2 719.82 154.35C711.96 153.38 705.29 152.12 699.79 150.54C694.29 148.97 689.55 146.07 685.56 141.84C681.57 137.61 679.58 131.69 679.58 124.08C679.58 117.8 681.45 112.21 685.2 107.31C688.94 102.42 694.41 98.55 701.6 95.71C708.79 92.87 717.4 91.45 727.43 91.45C734.56 91.45 741.63 92.17 748.64 93.62C755.65 95.07 761.51 97.13 766.22 99.78L755.89 123.16C747.19 118.33 737.77 115.91 727.61 115.91C722.17 115.91 718.18 116.54 715.65 117.81C713.11 119.08 711.84 120.74 711.84 122.79C711.84 125.09 713.23 126.69 716.01 127.59C718.79 128.5 723.38 129.43 729.79 130.4C737.88 131.61 744.59 133 749.91 134.57C755.23 136.14 759.85 139.01 763.78 143.18C767.71 147.35 769.67 153.18 769.67 160.67C769.67 166.83 767.79 172.36 764.05 177.25C760.3 182.14 754.77 185.98 747.46 188.76C740.15 191.54 731.36 192.93 721.09 192.93C712.87 192.95 704.77 192.01 696.8 190.14Z" fill="#2D2837"/>
<path d="M885.19 93.0699V191.31H852.38V181.52C845.97 189.13 836.31 192.94 823.38 192.94C814.44 192.94 806.31 190.86 799 186.69C791.69 182.52 785.89 176.57 781.6 168.84C777.31 161.11 775.16 152.16 775.16 142.01C775.16 131.86 777.3 122.95 781.6 115.27C785.89 107.6 791.69 101.71 799 97.5999C806.31 93.4899 814.44 91.4399 823.38 91.4399C834.98 91.4399 844.1 94.8199 850.75 101.59V93.0699H885.19ZM845.5 159.32C849.37 155.15 851.3 149.38 851.3 142.01C851.3 134.76 849.37 129.08 845.5 124.97C841.63 120.86 836.68 118.81 830.64 118.81C824.6 118.81 819.64 120.87 815.78 124.97C811.91 129.08 809.98 134.76 809.98 142.01C809.98 149.38 811.91 155.15 815.78 159.32C819.65 163.49 824.6 165.57 830.64 165.57C836.68 165.58 841.63 163.49 845.5 159.32Z" fill="#2D2837"/>
<path d="M48.3301 6.21999C47.3301 21.06 41.1801 34.33 31.7501 44.41C12.6101 64.58 0.860107 91.82 0.860107 121.81C0.860107 124.79 1.05011 127.72 1.43011 130.6V130.69C1.44011 130.72 1.44011 130.73 1.44011 130.75C4.47011 154.48 19.4801 174.46 40.2001 184.45C49.3101 188.85 59.5501 191.31 70.3501 191.31C77.7401 191.31 84.7101 189.44 90.7701 186.15C84.6201 179.66 76.0701 175.47 66.5301 174.97C66.8101 174.97 67.1001 174.98 67.3801 175.01C52.7001 147.14 52.2801 112.66 68.9301 83.62C68.9301 83.61 68.9401 83.59 68.9401 83.59C69.1501 83.19 69.3801 82.79 69.6201 82.39C69.8201 82.03 70.0501 81.66 70.2801 81.29C70.5101 80.91 70.7501 80.54 70.9801 80.16C76.8601 70.82 84.9401 63.71 94.1201 59.07C94.3301 58.96 94.5601 58.86 94.7901 58.74C105.2 53.64 114.9 46.64 123.34 37.73C129.09 31.68 133.37 24.77 136.2 17.44C109.97 0.0599823 77.3201 -3.68001 48.3301 6.21999ZM96.8501 31.94C92.2201 31.94 88.4601 28.19 88.4601 23.57C88.4601 18.95 92.2201 15.2 96.8501 15.2C101.46 15.2 105.22 18.95 105.22 23.57C105.22 28.19 101.46 31.94 96.8501 31.94Z" fill="url(#paint0_linear_15_314)"/>
<path d="M212.71 191C212.71 241.58 174.6 285.09 123.17 290.67C166.86 268 172.85 225.11 172.85 208.77C172.85 194.54 169.54 180.12 162.56 166.63C150.6 143.55 125.03 136.71 100.77 136.71C106.12 136.71 110.17 135.49 111.21 135.17C119.23 133.12 127.7 129.45 134.85 127.12C136.89 126.46 138.81 125.92 140.57 125.55C140.72 125.51 142.13 125.25 143.76 125.07C146.04 124.82 148.3 124.7 150.54 124.7C175.21 124.7 212.71 142.43 212.71 191Z" fill="url(#paint1_linear_15_314)"/>
<path d="M140.57 125.56C138.59 125.94 136.68 126.47 134.85 127.13L140.57 125.56Z" fill="url(#paint2_linear_15_314)"/>
<path d="M172.85 208.77C172.85 209.42 172.84 210.06 172.83 210.7C172.69 190.9 156.61 174.91 136.77 174.91C116.75 174.91 100.7 191.16 100.7 210.94C86.1202 201.74 74.9102 189.25 67.4202 175.02V175.01H67.4002C60.1902 161.33 56.4202 146.05 56.4202 130.61C56.4202 114.6 60.4702 98.4 68.9502 83.62C66.2402 88.68 64.6902 94.47 64.6902 100.62C64.6902 120.54 80.8402 136.69 100.76 136.69C125.03 136.69 150.59 143.53 162.55 166.61C169.53 180.12 172.85 194.54 172.85 208.77Z" fill="url(#paint3_linear_15_314)"/>
<path d="M40.2101 184.44C33.0501 191.02 28.5701 200.46 28.5601 210.94C28.0501 210.13 27.5501 209.33 27.0501 208.52C26.5501 207.69 26.0501 206.87 25.5701 206.04C25.5401 205.98 25.5101 205.94 25.4801 205.9C24.6701 204.49 23.8601 203.08 23.0701 201.66C22.9601 201.45 22.8401 201.23 22.7101 201.02C22.6501 200.92 22.6001 200.81 22.5401 200.69C21.6901 199.09 20.8501 197.5 20.0301 195.89C19.5901 195.02 19.1601 194.15 18.7301 193.28C18.3201 192.41 17.9001 191.54 17.4901 190.66C17.0801 189.79 16.6801 188.91 16.2901 188.03C15.8901 187.13 15.5101 186.25 15.1201 185.35C14.7401 184.47 14.3701 183.57 13.9901 182.67C13.9601 182.58 13.9301 182.5 13.8901 182.41C13.2901 180.93 12.7201 179.46 12.1701 177.97C11.9801 177.5 11.8101 177.04 11.6401 176.57C11.5801 176.4 11.5101 176.23 11.4501 176.06C11.1801 175.31 10.9101 174.56 10.6501 173.8L9.84015 171.41C9.71014 171.05 9.60014 170.7 9.48014 170.34C9.27014 169.66 9.05015 168.97 8.84015 168.29C8.83014 168.26 8.83015 168.25 8.81015 168.22C8.74015 167.99 8.67014 167.75 8.60014 167.52C8.39014 166.81 8.17014 166.11 7.96014 165.4C7.90014 165.2 7.85015 165 7.79015 164.8C7.58015 164.06 7.36014 163.32 7.16014 162.56C6.90014 161.62 6.65014 160.67 6.41014 159.71C6.15014 158.77 5.93015 157.82 5.70015 156.86C5.47015 155.91 5.24014 154.95 5.03014 153.98C4.82014 153.03 4.62014 152.07 4.42014 151.1C4.14014 149.75 3.86014 148.39 3.62014 147.03C3.38014 145.67 3.15014 144.3 2.92014 142.93C2.89014 142.76 2.86015 142.57 2.83015 142.4C2.70015 141.59 2.59015 140.78 2.47015 139.95C2.33015 138.97 2.19014 137.97 2.07014 136.97C2.01014 136.51 1.96014 136.06 1.91014 135.62C1.82014 134.95 1.75015 134.28 1.68015 133.61C1.58015 132.71 1.49014 131.83 1.41014 130.93C1.41014 130.86 1.40015 130.79 1.40015 130.72C4.48015 154.47 19.4901 174.45 40.2101 184.44Z" fill="url(#paint4_linear_15_314)"/>
<defs>
<linearGradient id="paint0_linear_15_314" x1="0.863907" y1="96.0738" x2="136.226" y2="96.0738" gradientUnits="userSpaceOnUse">
<stop offset="1.33195e-07" stop-color="#50D296"/>
<stop offset="1" stop-color="#91E6C8"/>
</linearGradient>
<linearGradient id="paint1_linear_15_314" x1="100.765" y1="207.687" x2="212.711" y2="207.687" gradientUnits="userSpaceOnUse">
<stop offset="2.02456e-07" stop-color="#50D296"/>
<stop offset="1" stop-color="#91E6C8"/>
</linearGradient>
<linearGradient id="paint2_linear_15_314" x1="134.844" y1="126.341" x2="140.569" y2="126.341" gradientUnits="userSpaceOnUse">
<stop offset="2.02456e-07" stop-color="#50D296"/>
<stop offset="1" stop-color="#91E6C8"/>
</linearGradient>
<linearGradient id="paint3_linear_15_314" x1="56.422" y1="147.29" x2="172.846" y2="147.29" gradientUnits="userSpaceOnUse">
<stop offset="1.33195e-07" stop-color="#55CD96"/>
<stop offset="1" stop-color="#41C387"/>
</linearGradient>
<linearGradient id="paint4_linear_15_314" x1="1.44815" y1="170.844" x2="40.2123" y2="170.844" gradientUnits="userSpaceOnUse">
<stop offset="1.33195e-07" stop-color="#55CD96"/>
<stop offset="1" stop-color="#41C387"/>
</linearGradient>
</defs>
</svg>
