<svg width="886" height="291" viewBox="0 0 886 291" fill="none" xmlns="http://www.w3.org/2000/svg">
<path d="M311.38 144.72L297.97 159.04V190.76H262.44V63.88H297.97V116.63L347.09 63.88H386.6L334.76 120.07L389.32 190.76H347.63L311.38 144.72Z" fill="white"/>
<path d="M491.18 92.52V190.76H458.37V180.97C451.96 188.58 442.3 192.39 429.37 192.39C420.43 192.39 412.3 190.31 404.99 186.14C397.68 181.97 391.88 176.02 387.59 168.29C383.3 160.56 381.16 151.61 381.16 141.46C381.16 131.31 383.3 122.4 387.59 114.72C391.88 107.05 397.68 101.16 404.99 97.05C412.3 92.94 420.43 90.89 429.37 90.89C440.97 90.89 450.09 94.27 456.74 101.04V92.52H491.18ZM451.49 158.77C455.36 154.6 457.29 148.83 457.29 141.46C457.29 134.21 455.36 128.53 451.49 124.42C447.62 120.31 442.67 118.26 436.63 118.26C430.59 118.26 425.63 120.32 421.77 124.42C417.9 128.53 415.97 134.21 415.97 141.46C415.97 148.83 417.9 154.6 421.77 158.77C425.64 162.94 430.59 165.02 436.63 165.02C442.67 165.02 447.62 162.94 451.49 158.77Z" fill="white"/>
<path d="M595.66 97.05C602.97 101.16 608.77 107.05 613.06 114.72C617.35 122.39 619.5 131.3 619.5 141.46C619.5 151.62 617.35 160.55 613.06 168.29C608.77 176.02 602.97 181.97 595.66 186.14C588.35 190.31 580.22 192.39 571.28 192.39C558.35 192.39 548.68 188.58 542.28 180.97V190.76H509.47V56.27H543.91V101.04C550.55 94.27 559.68 90.89 571.28 90.89C580.22 90.89 588.35 92.95 595.66 97.05ZM578.89 158.77C582.76 154.6 584.69 148.83 584.69 141.46C584.69 134.21 582.76 128.53 578.89 124.42C575.02 120.31 570.07 118.26 564.03 118.26C557.99 118.26 553.03 120.32 549.17 124.42C545.3 128.53 543.37 134.21 543.37 141.46C543.37 148.83 545.3 154.6 549.17 158.77C553.04 162.94 557.99 165.02 564.03 165.02C570.07 165.02 575.02 162.94 578.89 158.77Z" fill="white"/>
<path d="M633.45 76.39C629.58 72.89 627.65 68.54 627.65 63.34C627.65 58.15 629.58 53.8 633.45 50.29C637.32 46.79 642.39 45.03 648.67 45.03C654.95 45.03 660.03 46.69 663.9 50.01C667.77 53.34 669.7 57.59 669.7 62.79C669.7 68.23 667.77 72.73 663.9 76.29C660.03 79.86 654.95 81.64 648.67 81.64C642.39 81.65 637.32 79.9 633.45 76.39ZM631.46 92.52H665.9V190.76H631.46V92.52Z" fill="white"/>
<path d="M696.8 189.59C688.83 187.72 682.42 185.27 677.59 182.25L687.92 158.69C692.39 161.47 697.71 163.67 703.87 165.31C710.03 166.94 716.13 167.76 722.18 167.76C727.74 167.76 731.7 167.19 734.05 166.04C736.41 164.89 737.58 163.23 737.58 161.05C737.58 158.88 736.16 157.33 733.32 156.43C730.48 155.52 725.98 154.65 719.82 153.8C711.96 152.83 705.29 151.57 699.79 149.99C694.29 148.42 689.55 145.52 685.56 141.29C681.57 137.06 679.58 131.14 679.58 123.53C679.58 117.25 681.45 111.66 685.2 106.76C688.94 101.87 694.41 98 701.6 95.16C708.79 92.32 717.4 90.9 727.43 90.9C734.56 90.9 741.63 91.62 748.64 93.07C755.65 94.52 761.51 96.58 766.22 99.23L755.89 122.61C747.19 117.78 737.77 115.36 727.61 115.36C722.17 115.36 718.18 115.99 715.65 117.26C713.11 118.53 711.84 120.19 711.84 122.24C711.84 124.54 713.23 126.14 716.01 127.04C718.79 127.95 723.38 128.88 729.79 129.85C737.88 131.06 744.59 132.45 749.91 134.02C755.23 135.59 759.85 138.46 763.78 142.63C767.71 146.8 769.67 152.63 769.67 160.12C769.67 166.28 767.79 171.81 764.05 176.7C760.3 181.59 754.77 185.43 747.46 188.21C740.15 190.99 731.36 192.38 721.09 192.38C712.87 192.39 704.77 191.46 696.8 189.59Z" fill="white"/>
<path d="M885.19 92.52V190.76H852.38V180.97C845.97 188.58 836.31 192.39 823.38 192.39C814.44 192.39 806.31 190.31 799 186.14C791.69 181.97 785.89 176.02 781.6 168.29C777.31 160.56 775.16 151.61 775.16 141.46C775.16 131.31 777.3 122.4 781.6 114.72C785.89 107.05 791.69 101.16 799 97.05C806.31 92.94 814.44 90.89 823.38 90.89C834.98 90.89 844.1 94.27 850.75 101.04V92.52H885.19ZM845.5 158.77C849.37 154.6 851.3 148.83 851.3 141.46C851.3 134.21 849.37 128.53 845.5 124.42C841.63 120.31 836.68 118.26 830.64 118.26C824.6 118.26 819.64 120.32 815.78 124.42C811.91 128.53 809.98 134.21 809.98 141.46C809.98 148.83 811.91 154.6 815.78 158.77C819.65 162.94 824.6 165.02 830.64 165.02C836.68 165.02 841.63 162.94 845.5 158.77Z" fill="white"/>
<path d="M48.3301 5.67C47.3301 20.51 41.1801 33.78 31.7501 43.86C12.6101 64.03 0.860107 91.27 0.860107 121.26C0.860107 124.24 1.05011 127.17 1.43011 130.05V130.14C1.44011 130.17 1.44011 130.18 1.44011 130.2C4.47011 153.93 19.4801 173.91 40.2001 183.9C49.3101 188.3 59.5501 190.76 70.3501 190.76C77.7401 190.76 84.7101 188.89 90.7701 185.6C84.6201 179.11 76.0701 174.92 66.5301 174.42C66.8101 174.42 67.1001 174.43 67.3801 174.46C52.7001 146.59 52.2801 112.11 68.9301 83.07C68.9301 83.06 68.9401 83.04 68.9401 83.04C69.1501 82.64 69.3801 82.24 69.6201 81.84C69.8201 81.48 70.0501 81.11 70.2801 80.74C70.5101 80.36 70.7501 79.99 70.9801 79.61C76.8601 70.27 84.9401 63.16 94.1201 58.52C94.3301 58.41 94.5601 58.31 94.7901 58.19C105.2 53.09 114.9 46.09 123.34 37.18C129.09 31.13 133.37 24.22 136.2 16.89C109.97 -0.500002 77.3201 -4.23 48.3301 5.67ZM96.8501 31.39C92.2201 31.39 88.4601 27.64 88.4601 23.02C88.4601 18.39 92.2201 14.65 96.8501 14.65C101.46 14.65 105.22 18.4 105.22 23.02C105.22 27.64 101.46 31.39 96.8501 31.39Z" fill="url(#paint0_linear_17_369)"/>
<path d="M212.71 190.45C212.71 241.03 174.6 284.54 123.17 290.12C166.86 267.45 172.85 224.56 172.85 208.22C172.85 193.99 169.54 179.57 162.56 166.08C150.6 143 125.03 136.16 100.77 136.16C106.12 136.16 110.17 134.94 111.21 134.62C119.23 132.57 127.7 128.9 134.85 126.57C136.89 125.91 138.81 125.37 140.57 125C140.72 124.96 142.13 124.7 143.76 124.52C146.04 124.27 148.3 124.15 150.54 124.15C175.21 124.15 212.71 141.88 212.71 190.45Z" fill="url(#paint1_linear_17_369)"/>
<path d="M140.57 125.01C138.59 125.39 136.68 125.92 134.85 126.58L140.57 125.01Z" fill="url(#paint2_linear_17_369)"/>
<path d="M172.85 208.22C172.85 208.87 172.84 209.51 172.83 210.15C172.69 190.35 156.61 174.36 136.77 174.36C116.75 174.36 100.7 190.61 100.7 210.39C86.1202 201.19 74.9102 188.7 67.4202 174.47V174.46H67.4002C60.1902 160.78 56.4202 145.5 56.4202 130.06C56.4202 114.05 60.4702 97.85 68.9502 83.07C66.2402 88.13 64.6902 93.92 64.6902 100.07C64.6902 119.99 80.8402 136.14 100.76 136.14C125.03 136.14 150.59 142.98 162.55 166.06C169.53 179.56 172.85 193.99 172.85 208.22Z" fill="url(#paint3_linear_17_369)"/>
<path d="M40.2101 183.89C33.0501 190.47 28.5701 199.91 28.5601 210.39C28.0501 209.58 27.5501 208.78 27.0501 207.97C26.5501 207.14 26.0501 206.32 25.5701 205.49C25.5401 205.43 25.5101 205.39 25.4801 205.35C24.6701 203.94 23.8601 202.53 23.0701 201.11C22.9601 200.9 22.8401 200.68 22.7101 200.47C22.6501 200.37 22.6001 200.26 22.5401 200.14C21.6901 198.55 20.8501 196.95 20.0301 195.34C19.5901 194.47 19.1601 193.6 18.7301 192.73C18.3201 191.86 17.9001 190.99 17.4901 190.11C17.0801 189.24 16.6801 188.36 16.2901 187.48C15.8901 186.58 15.5101 185.7 15.1201 184.8C14.7401 183.92 14.3701 183.02 13.9901 182.12C13.9601 182.03 13.9301 181.95 13.8901 181.86C13.2901 180.38 12.7201 178.91 12.1701 177.42C11.9801 176.95 11.8101 176.49 11.6401 176.02C11.5801 175.85 11.5101 175.68 11.4501 175.51C11.1801 174.76 10.9101 174.01 10.6501 173.25L9.84015 170.86C9.71014 170.5 9.60014 170.15 9.48014 169.79C9.27014 169.11 9.05015 168.42 8.84015 167.74C8.83014 167.71 8.83015 167.7 8.81015 167.67C8.74015 167.44 8.67014 167.2 8.60014 166.97C8.39014 166.26 8.17014 165.56 7.96014 164.85C7.90014 164.65 7.85015 164.45 7.79015 164.25C7.58015 163.51 7.36014 162.77 7.16014 162.01C6.90014 161.07 6.65014 160.12 6.41014 159.16C6.15014 158.22 5.93015 157.27 5.70015 156.31C5.47015 155.36 5.24014 154.4 5.03014 153.43C4.82014 152.48 4.62014 151.52 4.42014 150.55C4.14014 149.2 3.86014 147.84 3.62014 146.48C3.38014 145.11 3.15014 143.75 2.92014 142.38C2.89014 142.21 2.86015 142.02 2.83015 141.85C2.70015 141.04 2.59015 140.23 2.47015 139.4C2.33015 138.42 2.19014 137.42 2.07014 136.42C2.01014 135.96 1.96014 135.51 1.91014 135.07C1.82014 134.4 1.75015 133.73 1.68015 133.06C1.58015 132.16 1.49014 131.28 1.41014 130.38C1.41014 130.31 1.40015 130.24 1.40015 130.17C4.48015 153.92 19.4901 173.9 40.2101 183.89Z" fill="url(#paint4_linear_17_369)"/>
<defs>
<linearGradient id="paint0_linear_17_369" x1="0.863907" y1="95.5222" x2="136.226" y2="95.5222" gradientUnits="userSpaceOnUse">
<stop offset="1.33195e-07" stop-color="#50D296"/>
<stop offset="1" stop-color="#91E6C8"/>
</linearGradient>
<linearGradient id="paint1_linear_17_369" x1="100.765" y1="207.135" x2="212.711" y2="207.135" gradientUnits="userSpaceOnUse">
<stop offset="2.02456e-07" stop-color="#50D296"/>
<stop offset="1" stop-color="#91E6C8"/>
</linearGradient>
<linearGradient id="paint2_linear_17_369" x1="134.844" y1="125.789" x2="140.569" y2="125.789" gradientUnits="userSpaceOnUse">
<stop offset="2.02456e-07" stop-color="#50D296"/>
<stop offset="1" stop-color="#91E6C8"/>
</linearGradient>
<linearGradient id="paint3_linear_17_369" x1="56.422" y1="146.738" x2="172.846" y2="146.738" gradientUnits="userSpaceOnUse">
<stop offset="1.33195e-07" stop-color="#55CD96"/>
<stop offset="1" stop-color="#41C387"/>
</linearGradient>
<linearGradient id="paint4_linear_17_369" x1="1.44815" y1="170.293" x2="40.2123" y2="170.293" gradientUnits="userSpaceOnUse">
<stop offset="1.33195e-07" stop-color="#55CD96"/>
<stop offset="1" stop-color="#41C387"/>
</linearGradient>
</defs>
</svg>
