<svg width="886" height="291" viewBox="0 0 886 291" fill="none" xmlns="http://www.w3.org/2000/svg">
<path d="M262.011 263.49C260.308 262.71 258.967 261.62 257.997 260.23C257.028 258.84 256.529 257.23 256.49 255.41H261.052C261.209 256.98 261.845 258.3 262.951 259.37C264.057 260.44 265.683 260.98 267.817 260.98C269.853 260.98 271.459 260.46 272.634 259.42C273.808 258.38 274.396 257.04 274.396 255.41C274.396 254.13 274.053 253.09 273.358 252.29C272.663 251.49 271.811 250.88 270.773 250.47C269.736 250.05 268.346 249.61 266.593 249.13C264.429 248.55 262.697 247.98 261.404 247.4C260.102 246.82 258.996 245.92 258.066 244.69C257.146 243.46 256.676 241.8 256.676 239.72C256.676 237.9 257.126 236.28 258.037 234.87C258.947 233.46 260.22 232.37 261.865 231.61C263.509 230.84 265.399 230.46 267.523 230.46C270.597 230.46 273.103 231.24 275.061 232.81C277.019 234.38 278.126 236.46 278.371 239.05H273.671C273.515 237.77 272.859 236.64 271.694 235.67C270.538 234.69 269.001 234.21 267.092 234.21C265.311 234.21 263.852 234.68 262.726 235.63C261.6 236.57 261.032 237.89 261.032 239.59C261.032 240.81 261.365 241.8 262.041 242.57C262.716 243.34 263.548 243.92 264.527 244.32C265.516 244.72 266.897 245.18 268.688 245.69C270.852 246.3 272.585 246.9 273.906 247.49C275.218 248.08 276.354 248.99 277.294 250.23C278.233 251.46 278.703 253.13 278.703 255.25C278.703 256.88 278.282 258.42 277.431 259.86C276.589 261.3 275.336 262.47 273.671 263.36C272.007 264.26 270.049 264.7 267.797 264.7C265.653 264.67 263.715 264.28 262.011 263.49Z" fill="white"/>
<path d="M289.688 263.08C287.73 261.96 286.193 260.37 285.087 258.3C283.971 256.24 283.422 253.84 283.422 251.12C283.422 248.43 283.99 246.06 285.136 243.99C286.281 241.93 287.838 240.34 289.815 239.24C291.793 238.14 293.996 237.58 296.443 237.58C298.891 237.58 301.093 238.13 303.071 239.24C305.049 240.34 306.605 241.92 307.751 243.97C308.896 246.02 309.464 248.4 309.464 251.12C309.464 253.84 308.876 256.23 307.702 258.3C306.527 260.36 304.941 261.96 302.934 263.08C300.927 264.2 298.705 264.76 296.257 264.76C293.829 264.76 291.646 264.2 289.688 263.08ZM300.565 259.82C301.916 259.08 303.002 257.98 303.835 256.51C304.667 255.04 305.078 253.25 305.078 251.13C305.078 249.02 304.667 247.23 303.854 245.75C303.042 244.28 301.975 243.18 300.663 242.46C299.351 241.74 297.921 241.38 296.384 241.38C294.818 241.38 293.389 241.74 292.087 242.46C290.784 243.18 289.747 244.28 288.964 245.75C288.18 247.22 287.789 249.01 287.789 251.13C287.789 253.27 288.171 255.08 288.944 256.55C289.708 258.02 290.736 259.12 292.018 259.84C293.301 260.56 294.71 260.92 296.247 260.92C297.775 260.92 299.224 260.56 300.565 259.82Z" fill="white"/>
<path d="M325.569 241.63H320.165V264.33H315.886V241.63H312.548V238.03H315.886V236.16C315.886 233.22 316.63 231.06 318.118 229.7C319.606 228.34 321.995 227.66 325.285 227.66V231.31C323.405 231.31 322.083 231.69 321.31 232.44C320.537 233.19 320.155 234.43 320.155 236.16V238.03H325.559V241.63H325.569Z" fill="white"/>
<path d="M335.76 241.63V257.13C335.76 258.41 336.024 259.31 336.562 259.84C337.091 260.37 338.021 260.63 339.333 260.63H342.485V264.33H338.628C336.249 264.33 334.458 263.77 333.273 262.65C332.079 261.53 331.491 259.69 331.491 257.13V241.63H328.153V238.03H331.491V231.41H335.769V238.03H342.485V241.63H335.76Z" fill="white"/>
<path d="M381.959 238.03L373.921 264.33H369.506L363.299 243.45L357.092 264.33H352.677L344.59 238.03H348.957L354.88 260.11L361.273 238.03H365.639L371.885 260.16L377.71 238.03H381.959Z" fill="white"/>
<path d="M386.189 244C387.256 241.97 388.715 240.39 390.584 239.27C392.445 238.15 394.52 237.59 396.811 237.59C399.063 237.59 401.021 238.09 402.685 239.08C404.349 240.07 405.583 241.32 406.395 242.82V238.02H410.723V264.32H406.395V259.42C405.553 260.96 404.29 262.23 402.616 263.24C400.942 264.25 398.984 264.75 396.762 264.75C394.471 264.75 392.405 264.17 390.555 263.02C388.705 261.87 387.246 260.25 386.189 258.17C385.131 256.09 384.593 253.72 384.593 251.07C384.583 248.4 385.122 246.04 386.189 244ZM405.22 245.95C404.437 244.48 403.38 243.35 402.049 242.57C400.717 241.79 399.249 241.39 397.653 241.39C396.057 241.39 394.598 241.77 393.286 242.54C391.975 243.31 390.917 244.43 390.134 245.9C389.351 247.37 388.959 249.1 388.959 251.08C388.959 253.1 389.351 254.85 390.134 256.34C390.917 257.83 391.965 258.96 393.286 259.75C394.608 260.54 396.057 260.93 397.653 260.93C399.249 260.93 400.717 260.54 402.049 259.75C403.38 258.97 404.437 257.83 405.22 256.34C406.004 254.85 406.395 253.12 406.395 251.13C406.395 249.15 406.004 247.42 405.22 245.95Z" fill="white"/>
<path d="M425.446 238.8C426.837 237.97 428.54 237.55 430.547 237.55V242.06H429.421C424.624 242.06 422.235 244.72 422.235 250.03V264.33H417.957V238.03H422.235V242.3C422.979 240.8 424.056 239.63 425.446 238.8Z" fill="white"/>
<path d="M458.831 252.81H438.252C438.409 255.4 439.28 257.43 440.856 258.88C442.442 260.34 444.361 261.06 446.613 261.06C448.463 261.06 450 260.62 451.244 259.74C452.477 258.86 453.348 257.68 453.848 256.21H458.449C457.764 258.74 456.383 260.79 454.318 262.38C452.252 263.97 449.677 264.76 446.613 264.76C444.165 264.76 441.982 264.2 440.053 263.08C438.125 261.96 436.617 260.37 435.521 258.3C434.424 256.24 433.876 253.84 433.876 251.12C433.876 248.4 434.405 246.02 435.472 243.97C436.539 241.92 438.037 240.35 439.956 239.24C441.884 238.14 444.097 237.58 446.603 237.58C449.051 237.58 451.204 238.12 453.084 239.21C454.964 240.3 456.413 241.79 457.431 243.7C458.449 245.6 458.958 247.76 458.958 250.16C458.978 251.01 458.929 251.88 458.831 252.81ZM453.476 244.96C452.751 243.76 451.772 242.85 450.539 242.22C449.305 241.6 447.935 241.28 446.427 241.28C444.263 241.28 442.423 241.98 440.905 243.39C439.388 244.8 438.516 246.75 438.301 249.25H454.562C454.562 247.6 454.2 246.16 453.476 244.96Z" fill="white"/>
<path d="M496.522 256.89H482.239L479.605 264.33H475.092L486.938 231.07H491.872L503.669 264.33H499.156L496.522 256.89ZM495.298 253.34L489.375 236.44L483.452 253.34H495.298Z" fill="white"/>
<path d="M516.328 238.8C517.718 237.97 519.421 237.55 521.428 237.55V242.06H520.303C515.505 242.06 513.117 244.72 513.117 250.03V264.33H508.838V238.03H513.117V242.3C513.861 240.8 514.938 239.63 516.328 238.8Z" fill="white"/>
<path d="M531.58 241.63V257.13C531.58 258.41 531.845 259.31 532.383 259.84C532.912 260.37 533.842 260.63 535.154 260.63H538.306V264.33H534.449C532.07 264.33 530.278 263.77 529.094 262.65C527.909 261.53 527.312 259.69 527.312 257.13V241.63H523.974V238.03H527.312V231.41H531.59V238.03H538.306V241.63H531.58Z" fill="white"/>
<path d="M543.603 232.89C543.035 232.31 542.761 231.61 542.761 230.78C542.761 229.95 543.045 229.24 543.603 228.67C544.17 228.09 544.856 227.81 545.668 227.81C546.452 227.81 547.117 228.1 547.666 228.67C548.214 229.25 548.488 229.95 548.488 230.78C548.488 231.61 548.214 232.32 547.666 232.89C547.117 233.47 546.452 233.75 545.668 233.75C544.856 233.76 544.17 233.47 543.603 232.89ZM547.744 238.03V264.33H543.466V238.03H547.744Z" fill="white"/>
<path d="M558.836 263.73C557.27 263.04 556.036 262.08 555.126 260.85C554.215 259.62 553.716 258.2 553.618 256.6H558.033C558.161 257.91 558.758 258.98 559.845 259.82C560.922 260.65 562.341 261.07 564.094 261.07C565.719 261.07 567.011 260.7 567.951 259.97C568.891 259.23 569.361 258.31 569.361 257.19C569.361 256.04 568.861 255.18 567.853 254.62C566.854 254.06 565.298 253.51 563.203 252.96C561.294 252.45 559.737 251.93 558.523 251.4C557.319 250.87 556.281 250.09 555.42 249.05C554.558 248.01 554.127 246.64 554.127 244.95C554.127 243.61 554.519 242.37 555.302 241.25C556.085 240.13 557.201 239.24 558.64 238.59C560.08 237.93 561.724 237.61 563.575 237.61C566.424 237.61 568.724 238.35 570.486 239.82C572.239 241.29 573.179 243.31 573.306 245.87H569.028C568.93 244.49 568.391 243.39 567.403 242.56C566.414 241.73 565.092 241.31 563.428 241.31C561.891 241.31 560.667 241.65 559.766 242.32C558.856 242.99 558.406 243.87 558.406 244.96C558.406 245.82 558.68 246.54 559.228 247.1C559.776 247.66 560.461 248.11 561.294 248.44C562.126 248.77 563.271 249.15 564.749 249.57C566.6 250.08 568.098 250.59 569.263 251.08C570.418 251.58 571.417 252.32 572.249 253.31C573.081 254.3 573.512 255.6 573.541 257.2C573.541 258.64 573.149 259.94 572.366 261.09C571.583 262.24 570.477 263.15 569.057 263.8C567.638 264.45 565.993 264.78 564.142 264.78C562.165 264.76 560.403 264.42 558.836 263.73Z" fill="white"/>
<path d="M579.552 244C580.619 241.97 582.078 240.39 583.948 239.27C585.808 238.15 587.883 237.59 590.174 237.59C592.426 237.59 594.384 238.09 596.048 239.08C597.712 240.07 598.946 241.32 599.759 242.82V238.02H604.086V264.32H599.759V259.42C598.917 260.96 597.654 262.23 595.98 263.24C594.305 264.25 592.347 264.75 590.125 264.75C587.834 264.75 585.769 264.17 583.918 263.02C582.068 261.87 580.609 260.25 579.552 258.17C578.495 256.09 577.956 253.72 577.956 251.07C577.956 248.4 578.495 246.04 579.552 244ZM598.584 245.95C597.801 244.48 596.743 243.35 595.412 242.57C594.08 241.79 592.612 241.39 591.016 241.39C589.42 241.39 587.961 241.77 586.65 242.54C585.338 243.31 584.28 244.43 583.497 245.9C582.714 247.37 582.322 249.1 582.322 251.08C582.322 253.1 582.714 254.85 583.497 256.34C584.28 257.83 585.328 258.96 586.65 259.75C587.971 260.54 589.42 260.93 591.016 260.93C592.612 260.93 594.08 260.54 595.412 259.75C596.743 258.97 597.801 257.83 598.584 256.34C599.367 254.85 599.759 253.12 599.759 251.13C599.759 249.15 599.367 247.42 598.584 245.95Z" fill="white"/>
<path d="M631.478 240.45C633.417 242.39 634.396 245.18 634.396 248.83V264.33H630.166V249.45C630.166 246.83 629.52 244.82 628.238 243.43C626.955 242.04 625.203 241.34 622.971 241.34C620.719 241.34 618.917 242.06 617.586 243.5C616.255 244.94 615.589 247.04 615.589 249.79V264.33H611.311V238.03H615.589V241.77C616.431 240.43 617.586 239.39 619.045 238.65C620.503 237.91 622.109 237.55 623.861 237.55C627.004 237.55 629.54 238.52 631.478 240.45Z" fill="white"/>
<path d="M645.204 263.73C643.637 263.04 642.404 262.08 641.493 260.85C640.583 259.62 640.084 258.2 639.986 256.6H644.401C644.528 257.91 645.126 258.98 646.212 259.82C647.289 260.65 648.709 261.07 650.461 261.07C652.086 261.07 653.379 260.7 654.318 259.97C655.258 259.23 655.728 258.31 655.728 257.19C655.728 256.04 655.229 255.18 654.221 254.62C653.212 254.06 651.665 253.51 649.57 252.96C647.661 252.45 646.105 251.93 644.891 251.4C643.686 250.87 642.649 250.09 641.787 249.05C640.926 248.01 640.495 246.64 640.495 244.95C640.495 243.61 640.886 242.37 641.67 241.25C642.453 240.13 643.569 239.24 645.008 238.59C646.447 237.93 648.092 237.61 649.942 237.61C652.791 237.61 655.092 238.35 656.854 239.82C658.607 241.29 659.546 243.31 659.674 245.87H655.395C655.297 244.49 654.759 243.39 653.77 242.56C652.781 241.73 651.46 241.31 649.795 241.31C648.258 241.31 647.035 241.65 646.134 242.32C645.233 242.99 644.773 243.87 644.773 244.96C644.773 245.82 645.047 246.54 645.596 247.1C646.144 247.66 646.829 248.11 647.661 248.44C648.493 248.78 649.639 249.15 651.117 249.57C652.967 250.08 654.465 250.59 655.63 251.08C656.786 251.58 657.784 252.32 658.616 253.31C659.448 254.3 659.879 255.6 659.909 257.2C659.909 258.64 659.517 259.94 658.734 261.09C657.951 262.24 656.844 263.15 655.425 263.8C653.995 264.46 652.36 264.78 650.51 264.78C648.542 264.76 646.77 264.42 645.204 263.73Z" fill="white"/>
<path d="M304.627 145.24L291.499 159.56V191.28H256.715V64.4H291.499V117.15L339.588 64.4H378.268L327.517 120.59L380.931 191.28H340.116L304.627 145.24Z" fill="white"/>
<path d="M486.517 93.04V191.28H454.396V181.49C448.12 189.1 438.663 192.91 426.005 192.91C417.252 192.91 409.293 190.83 402.136 186.66C394.98 182.49 389.302 176.54 385.102 168.81C380.902 161.08 378.807 152.13 378.807 141.98C378.807 131.83 380.902 122.92 385.102 115.24C389.302 107.57 394.98 101.68 402.136 97.57C409.293 93.46 417.252 91.41 426.005 91.41C437.361 91.41 446.29 94.79 452.8 101.56V93.04H486.517ZM447.65 159.29C451.439 155.12 453.329 149.35 453.329 141.98C453.329 134.73 451.439 129.05 447.65 124.94C443.862 120.83 439.016 118.78 433.102 118.78C427.189 118.78 422.333 120.84 418.554 124.94C414.766 129.05 412.876 134.73 412.876 141.98C412.876 149.35 414.766 155.12 418.554 159.29C422.343 163.46 427.189 165.54 433.102 165.54C439.016 165.54 443.862 163.46 447.65 159.29Z" fill="white"/>
<path d="M592.543 97.57C599.7 101.68 605.378 107.57 609.578 115.24C613.778 122.91 615.873 131.82 615.873 141.98C615.873 152.13 613.768 161.07 609.578 168.81C605.378 176.54 599.7 182.49 592.543 186.66C585.387 190.83 577.427 192.91 568.675 192.91C556.016 192.91 546.549 189.1 540.284 181.49V191.28H508.163V56.79H541.88V101.56C548.38 94.79 557.318 91.41 568.675 91.41C577.427 91.41 585.377 93.47 592.543 97.57ZM576.125 159.29C579.914 155.12 581.803 149.35 581.803 141.98C581.803 134.73 579.914 129.05 576.125 124.94C572.336 120.83 567.49 118.78 561.577 118.78C555.664 118.78 550.808 120.84 547.029 124.94C543.24 129.05 541.351 134.73 541.351 141.98C541.351 149.35 543.24 155.12 547.029 159.29C550.818 163.46 555.664 165.54 561.577 165.54C567.49 165.54 572.336 163.46 576.125 159.29Z" fill="white"/>
<path d="M633.436 76.91C629.647 73.41 627.758 69.06 627.758 63.86C627.758 58.67 629.647 54.32 633.436 50.81C637.225 47.31 642.188 45.55 648.346 45.55C654.494 45.55 659.468 47.21 663.257 50.53C667.045 53.86 668.935 58.11 668.935 63.31C668.935 68.75 667.036 73.25 663.257 76.81C659.468 80.38 654.504 82.16 648.346 82.16C642.188 82.17 637.225 80.41 633.436 76.91ZM631.488 93.04H665.205V191.28H631.488V93.04Z" fill="white"/>
<path d="M698.207 190.1C690.404 188.23 684.129 185.78 679.4 182.76L689.514 159.2C693.89 161.98 699.098 164.18 705.129 165.82C711.159 167.45 717.131 168.27 723.054 168.27C728.498 168.27 732.374 167.7 734.675 166.55C736.986 165.4 738.131 163.74 738.131 161.56C738.131 159.39 736.741 157.85 733.96 156.94C731.18 156.03 726.775 155.16 720.744 154.31C713.049 153.34 706.519 152.08 701.134 150.5C695.75 148.93 691.109 146.03 687.203 141.8C683.297 137.57 681.349 131.65 681.349 124.04C681.349 117.76 683.179 112.17 686.851 107.27C690.512 102.38 695.867 98.51 702.906 95.67C709.945 92.83 718.375 91.41 728.194 91.41C735.174 91.41 742.096 92.13 748.959 93.58C755.822 95.03 761.559 97.09 766.17 99.74L756.057 123.12C747.539 118.29 738.317 115.87 728.37 115.87C723.044 115.87 719.138 116.5 716.661 117.77C714.175 119.04 712.931 120.7 712.931 122.76C712.931 125.06 714.292 126.66 717.014 127.56C719.735 128.47 724.229 129.4 730.504 130.37C738.425 131.58 744.994 132.97 750.202 134.54C755.41 136.11 759.933 138.98 763.781 143.15C767.628 147.32 769.547 153.15 769.547 160.64C769.547 166.8 767.707 172.33 764.045 177.22C760.374 182.11 754.97 185.95 747.813 188.73C740.657 191.51 732.051 192.9 721.997 192.9C713.94 192.91 706.02 191.98 698.207 190.1Z" fill="white"/>
<path d="M885.775 93.04V191.28H853.653V181.49C847.378 189.1 837.921 192.91 825.262 192.91C816.5 192.91 808.551 190.83 801.394 186.66C794.238 182.49 788.559 176.54 784.359 168.81C780.16 161.08 778.064 152.13 778.064 141.98C778.064 131.83 780.16 122.92 784.359 115.24C788.559 107.57 794.238 101.68 801.394 97.57C808.551 93.46 816.5 91.41 825.262 91.41C836.619 91.41 845.547 94.79 852.058 101.56V93.04H885.775ZM846.908 159.29C850.697 155.12 852.586 149.35 852.586 141.98C852.586 134.73 850.697 129.05 846.908 124.94C843.119 120.83 838.273 118.78 832.36 118.78C826.447 118.78 821.591 120.84 817.812 124.94C814.023 129.05 812.134 134.73 812.134 141.98C812.134 149.35 814.023 155.12 817.812 159.29C821.601 163.46 826.447 165.54 832.36 165.54C838.273 165.54 843.129 163.46 846.908 159.29Z" fill="white"/>
<path d="M47.0999 6.18997C46.1209 21.03 40.1 34.3 30.8679 44.38C12.1298 64.55 0.626465 91.79 0.626465 121.78C0.626465 124.76 0.812483 127.69 1.18451 130.57V130.66C1.1943 130.69 1.19429 130.7 1.19429 130.72C4.16068 154.45 18.8555 174.43 39.1405 184.42C48.0593 188.82 58.0843 191.28 68.6576 191.28C75.8924 191.28 82.7161 189.41 88.6488 186.12C82.628 179.63 74.2575 175.44 64.9178 174.94C65.1919 174.94 65.4758 174.95 65.7499 174.98C51.3781 147.11 50.9669 112.63 67.2674 83.59C67.2674 83.58 67.2772 83.56 67.2772 83.56C67.4828 83.16 67.7079 82.76 67.9429 82.36C68.1387 82 68.3639 81.63 68.589 81.26C68.8142 80.88 69.0492 80.51 69.2743 80.13C75.0309 70.79 82.9412 63.68 91.9285 59.04C92.1341 58.93 92.3593 58.83 92.5845 58.71C102.776 53.61 112.272 46.61 120.535 37.7C126.164 31.65 130.355 24.74 133.125 17.41C107.436 0.0199718 75.4812 -3.71003 47.0999 6.18997ZM94.6012 31.91C90.0684 31.91 86.3874 28.16 86.3874 23.54C86.3874 18.91 90.0684 15.17 94.6012 15.17C99.1144 15.17 102.795 18.92 102.795 23.54C102.795 28.16 99.1144 31.91 94.6012 31.91Z" fill="url(#paint0_linear_15_277)"/>
<path d="M208.029 190.97C208.029 241.55 170.719 285.06 120.369 290.64C163.141 267.97 169.006 225.08 169.006 208.74C169.006 194.51 165.765 180.09 158.932 166.6C147.223 143.52 122.19 136.68 98.439 136.68C103.677 136.68 107.642 135.46 108.66 135.14C116.511 133.09 124.804 129.42 131.803 127.09C133.801 126.43 135.68 125.89 137.403 125.52C137.55 125.48 138.931 125.22 140.526 125.04C142.759 124.79 144.971 124.67 147.164 124.67C171.316 124.67 208.029 142.4 208.029 190.97Z" fill="url(#paint1_linear_15_277)"/>
<path d="M137.404 125.52C135.465 125.9 133.595 126.43 131.804 127.09L137.404 125.52Z" fill="url(#paint2_linear_15_277)"/>
<path d="M169.006 208.74C169.006 209.39 168.996 210.03 168.986 210.67C168.849 190.87 153.107 174.88 133.683 174.88C114.083 174.88 98.3704 191.13 98.3704 210.91C84.0965 201.71 73.1218 189.22 65.789 174.99V174.98H65.7793C58.7206 161.3 55.0298 146.02 55.0298 130.58C55.0298 114.57 58.9948 98.37 67.2967 83.59C64.6436 88.65 63.1262 94.44 63.1262 100.59C63.1262 120.51 78.9371 136.66 98.4389 136.66C122.199 136.66 147.223 143.5 158.932 166.58C165.755 180.08 169.006 194.51 169.006 208.74Z" fill="url(#paint3_linear_15_277)"/>
<path d="M39.1502 184.41C32.1406 190.99 27.7546 200.43 27.7448 210.91C27.2455 210.1 26.756 209.3 26.2665 208.49C25.777 207.66 25.2875 206.84 24.8176 206.01C24.7882 205.95 24.7589 205.91 24.7295 205.87C23.9365 204.46 23.1435 203.05 22.3701 201.63C22.2624 201.42 22.1449 201.2 22.0176 200.99C21.9589 200.89 21.91 200.78 21.8512 200.66C21.0191 199.06 20.1967 197.47 19.3939 195.86C18.9631 194.99 18.5422 194.12 18.1212 193.25C17.7198 192.38 17.3086 191.51 16.9072 190.63C16.5058 189.76 16.1142 188.88 15.7324 188C15.3408 187.1 14.9688 186.22 14.587 185.32C14.215 184.44 13.8527 183.54 13.4807 182.64C13.4514 182.55 13.422 182.47 13.3828 182.38C12.7954 180.9 12.2374 179.43 11.6989 177.94C11.5129 177.47 11.3465 177.01 11.1801 176.54C11.1213 176.37 11.0528 176.2 10.994 176.03C10.7297 175.28 10.4654 174.53 10.2108 173.77L9.41784 171.38C9.29057 171.02 9.18288 170.67 9.0654 170.31C8.8598 169.63 8.64442 168.94 8.43883 168.26C8.42904 168.23 8.42904 168.22 8.40946 168.19C8.34093 167.96 8.27241 167.72 8.20388 167.49C7.99829 166.78 7.78291 166.08 7.57732 165.37C7.51858 165.17 7.46963 164.97 7.41089 164.77C7.2053 164.03 6.98991 163.29 6.79411 162.53C6.53957 161.59 6.29482 160.64 6.05986 159.68C5.80532 158.74 5.58993 157.79 5.36476 156.83C5.13958 155.88 4.91442 154.92 4.70882 153.95C4.50323 153 4.30743 152.04 4.11163 151.07C3.83751 149.72 3.56338 148.36 3.32842 147C3.09346 145.63 2.86829 144.27 2.64312 142.9C2.61375 142.73 2.58439 142.54 2.55501 142.37C2.42774 141.56 2.32005 140.75 2.20257 139.92C2.06551 138.94 1.92846 137.94 1.81098 136.94C1.75224 136.48 1.70328 136.03 1.65433 135.59C1.56622 134.92 1.49769 134.25 1.42916 133.58C1.33126 132.68 1.24315 131.8 1.16483 130.9C1.16483 130.83 1.15503 130.76 1.15503 130.69C4.17037 154.43 18.8653 174.41 39.1502 184.41Z" fill="url(#paint4_linear_15_277)"/>
<defs>
<linearGradient id="paint0_linear_15_277" x1="0.626465" y1="96.0392" x2="133.125" y2="96.0392" gradientUnits="userSpaceOnUse">
<stop offset="1.33195e-07" stop-color="#50D296"/>
<stop offset="1" stop-color="#91E6C8"/>
</linearGradient>
<linearGradient id="paint1_linear_15_277" x1="98.439" y1="207.655" x2="208.029" y2="207.655" gradientUnits="userSpaceOnUse">
<stop offset="2.02456e-07" stop-color="#50D296"/>
<stop offset="1" stop-color="#91E6C8"/>
</linearGradient>
<linearGradient id="paint2_linear_15_277" x1="131.798" y1="126.305" x2="137.397" y2="126.305" gradientUnits="userSpaceOnUse">
<stop offset="2.02456e-07" stop-color="#50D296"/>
<stop offset="1" stop-color="#91E6C8"/>
</linearGradient>
<linearGradient id="paint3_linear_15_277" x1="55.0298" y1="147.25" x2="169.006" y2="147.25" gradientUnits="userSpaceOnUse">
<stop offset="1.33195e-07" stop-color="#55CD96"/>
<stop offset="1" stop-color="#41C387"/>
</linearGradient>
<linearGradient id="paint4_linear_15_277" x1="1.20134" y1="170.8" x2="39.1518" y2="170.8" gradientUnits="userSpaceOnUse">
<stop offset="1.33195e-07" stop-color="#55CD96"/>
<stop offset="1" stop-color="#41C387"/>
</linearGradient>
</defs>
</svg>
