<svg width="213" height="291" viewBox="0 0 213 291" fill="none" xmlns="http://www.w3.org/2000/svg">
<g clip-path="url(#clip0_42_49)">
<path d="M48.3301 6.21992C47.3301 21.0599 41.1801 34.3299 31.7501 44.4099C12.6101 64.5799 0.860107 91.8199 0.860107 121.81C0.860107 124.79 1.05011 127.72 1.43011 130.6V130.69C1.44011 130.72 1.44011 130.73 1.44011 130.75C4.47011 154.48 19.4801 174.46 40.2001 184.45C49.3101 188.85 59.5501 191.31 70.3501 191.31C77.7401 191.31 84.7101 189.44 90.7701 186.15C84.6201 179.66 76.0701 175.47 66.5301 174.97C66.8101 174.97 67.1001 174.98 67.3801 175.01C52.7001 147.14 52.2801 112.66 68.9301 83.6199C68.9301 83.6099 68.9401 83.5899 68.9401 83.5899C69.1501 83.1899 69.3801 82.7899 69.6201 82.3899C69.8201 82.0299 70.0501 81.6599 70.2801 81.2899C70.5101 80.9099 70.7501 80.5399 70.9801 80.1599C76.8601 70.8199 84.9401 63.7099 94.1201 59.0699C94.3301 58.9599 94.5601 58.8599 94.7901 58.7399C105.2 53.6399 114.9 46.6399 123.34 37.7299C129.09 31.6799 133.37 24.7699 136.2 17.4399C109.97 0.0599213 77.3201 -3.68008 48.3301 6.21992ZM96.8501 31.9399C92.2201 31.9399 88.4601 28.1899 88.4601 23.5699C88.4601 18.9499 92.2201 15.1999 96.8501 15.1999C101.46 15.1999 105.22 18.9499 105.22 23.5699C105.22 28.1899 101.46 31.9399 96.8501 31.9399Z" fill="url(#paint0_linear_42_49)"/>
<path d="M212.71 191C212.71 241.58 174.6 285.09 123.17 290.67C166.86 268 172.85 225.11 172.85 208.77C172.85 194.54 169.54 180.12 162.56 166.63C150.6 143.55 125.03 136.71 100.77 136.71C106.12 136.71 110.17 135.49 111.21 135.17C119.23 133.12 127.7 129.45 134.85 127.12C136.89 126.46 138.81 125.92 140.57 125.55C140.72 125.51 142.13 125.25 143.76 125.07C146.04 124.82 148.3 124.7 150.54 124.7C175.21 124.7 212.71 142.43 212.71 191Z" fill="url(#paint1_linear_42_49)"/>
<path d="M140.57 125.56C138.59 125.94 136.68 126.47 134.85 127.13Z" fill="url(#paint2_linear_42_49)"/>
<path d="M172.85 208.77C172.85 209.42 172.84 210.06 172.83 210.7C172.69 190.9 156.61 174.91 136.77 174.91C116.75 174.91 100.7 191.16 100.7 210.94C86.1202 201.74 74.9102 189.25 67.4202 175.02V175.01H67.4002C60.1902 161.33 56.4202 146.05 56.4202 130.61C56.4202 114.6 60.4702 98.4 68.9502 83.62C66.2402 88.68 64.6902 94.47 64.6902 100.62C64.6902 120.54 80.8402 136.69 100.76 136.69C125.03 136.69 150.59 143.53 162.55 166.61C169.53 180.12 172.85 194.54 172.85 208.77Z" fill="url(#paint3_linear_42_49)"/>
<path d="M40.2101 184.44C33.0501 191.02 28.5701 200.46 28.5601 210.94C28.0501 210.13 27.5501 209.33 27.0501 208.52C26.5501 207.69 26.0501 206.87 25.5701 206.04C25.5401 205.98 25.5101 205.94 25.4801 205.9C24.6701 204.49 23.8601 203.08 23.0701 201.66C22.9601 201.45 22.8401 201.23 22.7101 201.02C22.6501 200.92 22.6001 200.81 22.5401 200.69C21.6901 199.09 20.8501 197.5 20.0301 195.89C19.5901 195.02 19.1601 194.15 18.7301 193.28C18.3201 192.41 17.9001 191.54 17.4901 190.66C17.0801 189.79 16.6801 188.91 16.2901 188.03C15.8901 187.13 15.5101 186.25 15.1201 185.35C14.7401 184.47 14.3701 183.57 13.9901 182.67C13.9601 182.58 13.9301 182.5 13.8901 182.41C13.2901 180.93 12.7201 179.46 12.1701 177.97C11.9801 177.5 11.8101 177.04 11.6401 176.57C11.5801 176.4 11.5101 176.23 11.4501 176.06C11.1801 175.31 10.9101 174.56 10.6501 173.8L9.84015 171.41C9.71015 171.05 9.60014 170.7 9.48014 170.34C9.27014 169.66 9.05015 168.97 8.84015 168.29C8.83015 168.26 8.83015 168.25 8.81015 168.22C8.74015 167.99 8.67014 167.75 8.60014 167.52C8.39014 166.81 8.17014 166.11 7.96014 165.4C7.90014 165.2 7.85015 165 7.79015 164.8C7.58015 164.06 7.36014 163.32 7.16014 162.56C6.90014 161.62 6.65014 160.67 6.41014 159.71C6.15014 158.77 5.93015 157.82 5.70015 156.86C5.47015 155.91 5.24014 154.95 5.03014 153.98C4.82014 153.03 4.62014 152.07 4.42014 151.1C4.14014 149.75 3.86014 148.39 3.62014 147.03C3.38014 145.67 3.15014 144.3 2.92014 142.93C2.89014 142.76 2.86015 142.57 2.83015 142.4C2.70015 141.59 2.59015 140.78 2.47015 139.95C2.33015 138.97 2.19014 137.97 2.07014 136.97C2.01014 136.51 1.96014 136.06 1.91014 135.62C1.82014 134.95 1.75015 134.28 1.68015 133.61C1.58015 132.71 1.49014 131.83 1.41014 130.93C1.41014 130.86 1.40015 130.79 1.40015 130.72C4.48015 154.47 19.4901 174.45 40.2101 184.44Z" fill="url(#paint4_linear_42_49)"/>
</g>
<defs>
<linearGradient id="paint0_linear_42_49" x1="0.863907" y1="96.0737" x2="136.226" y2="96.0737" gradientUnits="userSpaceOnUse">
<stop offset="1.33195e-07" stop-color="#50D296"/>
<stop offset="1" stop-color="#91E6C8"/>
</linearGradient>
<linearGradient id="paint1_linear_42_49" x1="100.765" y1="207.687" x2="212.711" y2="207.687" gradientUnits="userSpaceOnUse">
<stop offset="2.02456e-07" stop-color="#50D296"/>
<stop offset="1" stop-color="#91E6C8"/>
</linearGradient>
<linearGradient id="paint2_linear_42_49" x1="134.844" y1="126.341" x2="140.569" y2="126.341" gradientUnits="userSpaceOnUse">
<stop offset="2.02456e-07" stop-color="#50D296"/>
<stop offset="1" stop-color="#91E6C8"/>
</linearGradient>
<linearGradient id="paint3_linear_42_49" x1="56.422" y1="147.29" x2="172.846" y2="147.29" gradientUnits="userSpaceOnUse">
<stop offset="1.33195e-07" stop-color="#55CD96"/>
<stop offset="1" stop-color="#41C387"/>
</linearGradient>
<linearGradient id="paint4_linear_42_49" x1="1.44815" y1="170.844" x2="40.2123" y2="170.844" gradientUnits="userSpaceOnUse">
<stop offset="1.33195e-07" stop-color="#55CD96"/>
<stop offset="1" stop-color="#41C387"/>
</linearGradient>
<clipPath id="clip0_42_49">
<rect width="213" height="291" fill="white"/>
</clipPath>
</defs>
</svg>
